<?xml version="1.0" encoding="utf-8"?>
<!-- Generator: Adobe Illustrator 18.0.0, SVG Export Plug-In . SVG Version: 6.00 Build 0)  -->
<!DOCTYPE svg PUBLIC "-//W3C//DTD SVG 1.1//EN" "http://www.w3.org/Graphics/SVG/1.1/DTD/svg11.dtd">
<svg version="1.1" id="Слой_1" xmlns="http://www.w3.org/2000/svg" xmlns:xlink="http://www.w3.org/1999/xlink" x="0px" y="0px"
	 viewBox="101 0 1508 1200" enable-background="new 101 0 1508 1200" xml:space="preserve">
<path fill="none" stroke="#000000" stroke-width="2" stroke-miterlimit="10" d="M362.9,540.6c0,3.1-3.8,5.6-8.4,5.6
	s-8.4-2.5-8.4-5.6s3.7-5.6,8.4-5.6C359.2,535.2,362.9,537.7,362.9,540.6z M1601.2,1118.9c0,0-9.5,28.4-18.4,35.5s-15.8-9.7-15.8-9.7
	l-14.5-17.3c-8.1-18.9-22.5,0-22.5,0h-10.5c0,0-1.2-16.9,7-28.9s-10.2-14.2-10.2-14.2l-3.1,22.8l-16.7-5.2v-13.8l-22.7-3.1
	l-4.2-19.1l-10.8,3.1l0.6-10.8c0,0,0-7.7,7-10.2s8.3,10.2,8.3,10.2s7-2,8.6-3.8c0.5-0.6,1.4-2,2.8-5c5.8-12-8.3-11.4-8.3-11.4
	c-18.4,1.2-19.7-12.7-19.7-12.7s-2.5-20.3-7-19.1c-4.4,1.2-17.8,0.6-24.7-0.6c-7-1.2,5-1.9-2.5-19.1c-7.7-17.2-36.7-41.2-36.7-41.2
	l-0.6,15.2l12,16.7v17.5l-6.1-1.1v17.7c0,0-1.7,7.7-8.6,7.7c-7,0-9.8-26.6-9.8-26.6s-1.2-3.8-12.7-28.6
	c-11.4-24.7,3.9-28.6,3.9-28.6l14.1,5.6l-0.2-2.3c7-12.7-25.9-17.8-25.9-17.8l-17.5-15.8l-8.4-23.4c-15.2-23.4-13.3-3.1-13.3-3.1
	l11.4,10.2l3.8,19.7l6.4,20.9c2.5,17.8-22.8,0-22.8,0s-7-35.5-12-28.6c-5,7-15.8,3.1-15.8,3.1c-5-5.6-19.1,0.6-19.1,0.6
	c-5.8,3.8,17.2,13.9,22.8,14.5c5.6,0.6,8.3,14.5,8.3,20.9c0,6.4-8.9-5.8-10.8,0.6c-1.9,6.4-7.7,7.7-7.7,7.7l-33.1-23.1l-69.7-40.6
	l-32.7-3.1v-7.7l15-8.3c-4.4-35.5-38.3-4.4-38.3-4.4l-38.6-4.4l-2.5-10.8l-75.5,4.4c0,0-8.9,3.1-15.8,6.4
	c-7,3.1-13.3-14.5-13.3-14.5s-15.8,1.2-21.6-3.1c-5.6-4.4,4.4-20.3,4.4-20.3c2.5-23.4-15.2,4.4-16.4,8.3c-1.2,3.8-17.2-1.9-17.2-1.9
	s-17.8,5.8-10.2-7c7.7-12.7,4.4-15.2-2.5-8.3c-7,7-7,7.7-8.3-3.8c-1.2-11.4-10.8,1.9-15.8-3.1c-5-5-2.5-12-2.5-12
	c-0.6-20.9-26.6,2.5-26.6,2.5l-10.8,4.4c-5,3.8-10.8-6.4-10.8-6.4c-10.2-17.2-7.7,12-7.7,12l-1.2,12.7c-10.2,8.9,8.9,8.3,8.9,8.3
	l0.6,35.5l-33.6,1.2l-13.3,6.4c-0.6-7.7-13.9-11.4-10.8-1.2s-7.7,19.1-10.2,19.1s-14.5-10.2-15.8,5c-1.2,15.2-11.4,12-11.4,12
	s-13.3-10.2-8.9,0.6c4.4,10.8-7,16.4-11.4,13.3s-24.1,5.8-24.1,5.8c-26.6-9.5,21.6-33.6,21.6-33.6c28.6-27.8-20.9-5-20.9-5
	c-12-1.9,0.6-27.8,9.5-38c8.9-10.2,3.8-28.6,3.8-28.6c-3.8-20.9,32.3-26.6,32.3-26.6c8.3-15.2,41.6,6.4,41.6,6.4c48,5,9.1-12,9.1-12
	c-15.8-5.3-20.2-18-20.2-18c26.9-36.7-16.4,2.2-16.4,2.2c-8.9,8.3-11.2-2.2-15.8-5.9S725.6,780,725.6,780s-15,2.2-17.2,3.8
	s-5.3,18-5.3,18l-20.2,15.8l-4.7,9.1v6.7l-12.7,11.2c5.9,16.4-8.1,17.2-8.1,17.2c-14.2,3-5.9,12-5.9,12
	c6.7,12.7-20.9,11.2-20.9,11.2c-2.2,11.2-12,8.3-12,8.3c-5.3-3-12,7.5-12,7.5c-3.8,17.2,15.8,18.8,15.8,18.8
	C635,924.1,635,942,633.6,948c-1.6,5.9-13.4,6.7-13.4,6.7c-0.8,5.3-9.1,10.5-9.1,10.5c-5.3-3.8-11.9,10.5-11.9,10.5
	c-0.8,21.7-14.2,20.9-14.2,20.9c-12.7-8.3-20.2,0-20.2,0c-1.6,14.2-12,12.7-12,12.7c-9.7-3-12.7,4.5-12.7,4.5
	c0.8,9.7-10.5,12.7-10.5,12.7c-10.5-5.9-9.7,3.8-9.7,3.8c1.6,12-8.3,8.9-8.3,8.9c-8.3-5.3-5.9,7.5-5.9,7.5
	c5.3,11.2-5.3,11.2-5.3,11.2c-7.5-3-14.2,8.3-14.2,8.3c-3.8,11.2-18.8,8.3-18.8,8.3c-6.7-10.5-11.3-1.6-11.3-1.6s-3.7-5.3,1.6,3.8
	c5.3,8.9-5.9,11.2-5.9,11.2c-6.7-7.5-18,0-18,0c-3,20.2-16.4,7.5-16.4,7.5c-18-1.6,1.6,17.2,1.6,17.2s-17.2,10.5-19.5,9.7
	c-2.2-0.8-21.7,8.9-21.7,8.9c-7.5-7.5-15.8,3-15.8,3c-1.6,19.5-12,6.7-12,6.7c5.9-16.4-12-5.9-12-5.9c-8.3,13.4-18,12-18,12
	c0-8.3-15.8-1.6-15.8-1.6c-5.3,7.5-15.8,5.9-15.8,5.9c-15,8.9-8.3-6.7-8.3-6.7c8.3-13.4-5.9-0.8-6.7-5.3
	c-0.8-4.5-17.2,4.5-17.2,13.4c0,8.9-8.3,14.2-8.9,11.2c-0.6-3-6.7-7.5-8.9-3.8c-2.2,3.8-5.3,11.2-6.7,8.3c-1.6-3-8.9-5.9-8.9-5.9
	c-3,9.7-8.3,9.7-8.3,9.7c-3.7-6.7-9.7-8.3-9.7-8.3l-3,20.9l-8.9,1.6l-0.8,4.5l-30.6-3.8c-6.7-8.9-23.3,1.6-23.3,1.6
	c-8.9,11.2-20.5,7.5-20.5,7.5l0.3-16.4c0,0-0.8,8.3,0-3.8s12.7-16.4,12.7-16.4l26.2-3.8c2.2-6.7,24.7,2.2,24.7,2.2l6.1,6.1h3.6
	l5.9-13.1c0,0,7.5,0.3,8.6-5c1.1-5.3,10.9,4.5,10.9,0s7.5-4.5,7.5-4.5l5.3,4.5l3.8-12l30-16.9h8.9c6.7-16.2,24.7-0.8,24.7-0.8
	c12,1.6,35.9-3.4,34.4-10.2s25.5-20.9,25.5-20.9l18-3.8l20.2-18.8c5.9-6.7,12,0,12,0s8.3-13.4,12-20.9c3.8-7.5,35.9-33,35.9-33
	l2.2-21.7c0.8-35.9,34.4-64.4,34.4-64.4l-14.2-1.6l-19.5,14.2c-22.5,10.5-17.2-20.2-17.2-20.2c8.3-30.6-17.2,1.6-17.2,1.6l4.5,19.5
	c-5.3,9.7-16.4,5.9-16.4,5.9l-14.2-32.2l-8.9-1.6c-18,14.2-16.4-15-16.4-15l-16.9-0.8c-7,9.7-33.3,18-33.3,18
	c-22.5,11.2-15-16.4-15-16.4l13.4-16.4l-8.9-9.7c-5.3-13.4,9.7-23.1,9.7-23.1l-0.8-30l12-8.1l-1.6-6.9c-30-6.7-3.7-26.2-3.7-26.2
	c18-21.7-11.2-10.5-11.2-10.5l-12.7,15c5.3,12.7-7,28.6-7,28.6H250l-8.9-22.2c-10.5-13.4,2.2-23.8,2.2-23.8l10.5-12
	c4.5-12,13.4-12,13.4-12l5.9,11.2c10.5,4.5-1.6-19.1-1.6-19.1h-22.3l3,7.2l-10.5,14.1l-12,8.3L220,758l3-14.2l-12-3
	c-7.5-2.2,0.8-6.7,0.8-6.7l14.2-3.8l0.8-17.2l6.7-3.8c4.5-10.5-6.7-8.3-6.7-8.3l-13.4-8.3l-3-9.7c-5.9-1.6-3.8-25.5-3.8-25.5l10.9-3
	v-15l10.2,2.8v-17l10.2-7.5c8.9-12.7,21.9-15.8,21.9-15.8s6.7,0.8,8.3-13.4c1.6-14.2,5.3-15.8,15.8-17.2c10.5-1.6,7.5-14.2,7.5-14.2
	s12.7,3,20.2-3c7.5-5.9,8.3,12,8.3,12c7.5,18.8,27.7-1.6,27.7-1.6c9.7-13.4,21.7-15,21.7-15l22.5,6.7c23.3,3,31.4-25.5,31.4-25.5
	l-6.7-29.2c-12.7-3-5.3-17.2-5.3-17.2l15.8-3c8.9-28.4-11.3-22.5-17.2-23.9c-5.9-1.6-33,20.2-33,20.2c-3.7,9.7-12,1.6-12,1.6
	c-6.7-20.9-8.3-3-8.3-3c-3.7,5.3-6.7,2.2-14.2-8.9c-0.5-0.6-0.9-1.2-1.4-1.7c-8.6-8.6-28.6-1.2-28.6-1.2l-19.5-0.8l-16.4-7.5
	c-12,0-17.2-8.3-20.2-17.2s5.3-15,5.3-15l-0.8-19.4c-1.6-19.4,19.5-5.3,19.5-5.3c4.5-15-17.2-15.8-17.2-15.8
	c-13.4,5.9-23.3-14.2-23.3-14.2L229,355.3c-5.3-7.5,12-2.2,12-7.5c0-5.3,11.2-5.3,11.2-5.3l15-3c18.8-25.5,31.4,3.8,31.4,3.8
	c4.5,3.7,12-5.3,6.7-12s5.9-9.7,5.9-9.7l17.2-0.8c-2.2,9.7,14.2,0,14.2,0c5.9-9.7,19.5-5.9,19.5-5.9c9.7,0.8,2.2,22.5,2.2,22.5
	c-8.9,11.2,5.9,16.4,5.9,16.4c19.5-5.9,41.1,8.9,41.1,8.9c0,16.4,8.9,8.9,8.9,8.9c0-8.3,7.5-9.7,7.5-9.7s8.9,3.8,15.8,3
	s-0.8-10.5-0.8-10.5l-18.8-5.9l-5.9-23.3l-1.6-10.5c0-15.8,8.9-0.8,8.9-0.8c3,7.5,7.5,6.7,7.5,6.7s1.6,18.8,4.5,17.2
	c3-1.6,20.2,14.2,20.2,14.2l24.7,0.8c-9.7-5.3-4.5-17.2-4.5-17.2l-16.4-2.2c-5.3-5.9-11.3,3-11.3,3c-12,3.8-16.4-33-16.4-33
	c0-12-8.9-1.6-15.8-2.2c-6.9-0.6-9.7-11.2-9.7-11.2l-13.4,0.8c-13.4-2.2-12-43.4-12-43.4s-30-41.1-44.8-58.4
	c-15-17.2-8.3-21.7-8.3-21.7c8.3-2.2,17.2-18.8,17.2-18.8c-3-17.2,15.8-10.5,15.8-10.5c20.2,0,55.5-3.8,55.5-3.8
	c25.5-5.3,36.7-40.5,36.7-40.5l7.5-5.3l8.9-14.2c13.4-23.3,39.7-12,39.7-12c16.4-8.9,32.2-23.3,32.2-23.3
	c13.4-21.7,35.9-2.2,35.9-2.2c26.2-0.8,37.5-26.2,37.5-26.2c11.2-15,22,0,22,0l5.8,11.2l-2.2,3.9c-11.3,27.2,8.3,7.3,8.3,7.3
	c15.8-16.4,23.3,0,23.3,0c0,9.7,8.3,13.6,8.3,13.6c12.7-14.8,23.9,3.6,23.9,3.6l8.3-1.6c14.2-9.7,10.5,16.4,10.5,16.4
	c7.5-3,16.4,10.3,16.4,10.3l12.7,3.3c8.9-7.3,18,0,18,0c3.8,6.9,14.1,1.4,14.1,1.4c28.3-8.3,53.3,21.7,53.3,21.7l28.4-2.2
	c14.2-5.2,35.9,16.4,35.9,16.4l19.5-3.8c12-21.7,35.2-8.9,35.2-8.9c9.1,9.1,61.4,24.5,61.4,24.5v5l84.7,673.1l0.6,9.4l7,3.1
	c0,0,3.1-0.6,5.8-6.4c2.5-5.6,13.3,4.4,13.3,4.4s10.2,3.1,15.2-5c5-8.3,19.7,0,19.7,0s-6.4,26.6,5.8,23.4
	c12-3.1,24.1,20.9,24.1,20.9l7,1.2l22.8,22.2l10.2,15.8l5.8,2.5l11.4-7.7l19.2-4.7v-22.5c0,0,8.8-7,8.1-13.3
	c-0.6-6.4,13.8-13.3,13.8-13.3s9.5-3.1,15.8-9.5c6.4-6.4,19.1,31.1,19.1,31.1l24.1,10.8l20.9,15.8l33,27.2l5.8,9.5l30.5,35.5
	L1469,978l6.4,15.8l12.7,5l9.5,29.5c0,0,8.3,5.3,13.9,0.8c5.8-4.4,20.8,9.8,20.8,9.8h20.3l3.8,3.6c0,0-1.2,8,15.2,4.8
	s17.8,20.3,17.8,20.3C1587.3,1096.1,1601.2,1118.9,1601.2,1118.9z M1510,1063.3c-0.6-7.7-19.7-0.6-21.6,3.8l10.2,16.4
	C1498.6,1083.6,1510.6,1070.8,1510,1063.3z M1308.6,945.5c0,0-13.4,12-12.2,20.3c1.2,8.3,29.1,33,29.1,33s8.6,6.1,8.6,0
	c0-6.1,14.2-9.7,13.6-0.8c-0.6,8.9-5,11.4,0,19.7c0,0,5.6,7.7,5,12.7s0,15.2,0,15.2l34.8,38c0,0,12-12.5,0-23.6
	c-12-11.2-6.4-25.8-13.3-31.4c-7-5.8-13.9-25.9-13.9-25.9l-3.8-20.3l3.1-21.4c0,0-10.8-8.3-19.1-3.9c-8.3,4.4-17.8-5.8-17.8-5.8
	L1308.6,945.5z M1326.7,1014.5c0,0,4.4,22.8,11.4,25.3c0,0,5.8-17,0-25.3c0,0-11.4-3.9-11.4-1.9 M1399.8,1033.3
	c0,0-9.2,16.9-7.5,21.4c1.6,4.4,12.2,6.7,12.2,9.2c0,2.5,0,15.5,0,15.5s19.8,13.7,19.2,4.2c-0.6-9.5-7-15.8-7-15.8l3.8-7.7
	c0,0,3-13.8-8.9-20.3C1399.8,1033.3,1407.9,1029.4,1399.8,1033.3z M1435.1,1071.2v6.1l-4.4,25.3c0,0,5.8,4.4,8.9,0s14.5-14.4,10.2,2
	l0.9,9.4l8.4,4.4c0,0,3.8,7,6.4,10.2c2.5,3.1,10.2,3.3,10.2,3.3l5,9.7h12.5l7.2,17.3l8.9,6.4c0,0,12,8.9,12,3.1
	c0-5.6-3.8-13.9-3.8-13.9l-2.5-16.4c0,0-1.9-13.9-4.4-13.9c-2.5,0-10.2-7-10.2-7l-2.5-15l-14.7-15.6h-16.6l-8.1-17.5L1435.1,1071.2z
	 M1412.6,1014.1v12.2c0,0,11.1,5.9,8,16.7s10.2,16.4,10.2,16.4l12-3l2.5-8.9l-5-7.7l5-3.1c0,0,3.4-21.7-14.5-22.2
	c-18.1-0.5-1.6,0-1.6,0L1412.6,1014.1z M1430.8,1126.7c0,0,4.4,7.5,14.8,5c0,0-3.4,12.7,5.5,15.2s7,6.2,11.4,5.6
	c4.4-0.6,7.7,17.8,10.2,17.8s18.4,14.5,18.4,14.5l3.1-14.5l-18-20.3l-10.5-7v-8.6c0,0-11.6-5.9-11.6-4.1s-5-3.8-5-3.8l-3.6-7
	C1445.6,1119.7,1432.8,1114.8,1430.8,1126.7z M874,829.4c0,0-15.2,4.8-21.7,15.2c-6.6,10.3-7.2,23.6-2.5,23.6
	c4.8,0,16.9-16.9,16.9-16.9l7.3-10.8V829.4L874,829.4z M877.3,832.3l9.8,7.2h12.3l5.8-16.3C905.3,823.3,876.5,822,877.3,832.3z
	 M667.8,958l-7,13.8l-11.4,2.2l-4.7,10.6h-8.4l-6.1,16.7l-4.8,2.3l-6.1,10.3l-6.1-3l-2.5,3v16.4l-8.3-3.8l-16.9,3.8l-14.5,16.1
	c0,0,0.6,9.7,10.3,8.4s-3.6,23,2.3,22.3c6.1-0.6,13.3-3.6,13.3,0c0,3.6-6.6,10.8-6.6,10.8l10.3,3l10.3-13.3l5.5-11.4l9.1,3.6
	l15.6-4.8l-0.6-9.7l12.7-0.6l3.6-10.8c0,0,7.8,4.2,14.5-7.2c6.6-11.4-9.7-25.9-12.7-25.3c-3,0.6-9.1-1.2-9.1-1.2l0.6-9.1l11.4-10.3
	l11.2,7.2l14.7-9.1c0,0,1.2-15.2-6.6-12c-7.8,3-8.4-2.3-8.4-2.3S676.5,953.9,667.8,958z"/>
</svg>
